<?xml version="1.0" encoding="UTF-8"?>
<svg xmlns="http://www.w3.org/2000/svg" version="1.1" height="80" width="80">
 <defs>
  <linearGradient id="hicg_overlay_grad" gradientUnits="userSpaceOnUse" x1="39.9995" y1="5.1816" x2="39.9995" y2="58.8019">
   <stop offset="0" style="stop-color:#FFFFFF"/>
   <stop offset="1" style="stop-color:#000000"/>
  </linearGradient>
  <filter id="hicg_drop_shadow">
    <feOffset in="SourceAlpha" dx="0" dy="4"/>
    <feGaussianBlur stdDeviation="4"/>
	<feColorMatrix type="matrix" values="1 0 0 0 0  0 1 0 0 0  0 0 1 0 0  0 0 0 0.5 0" result="shadow"/>
    <feBlend in="SourceGraphic" in2="shadow" mode="normal"/>
  </filter>
 </defs>
 <g>
  <path id="hicg_background" fill="#808080" d="M79,40c0,28.893-10.105,39-39,39S1,68.893,1,40C1,11.106,11.105,1,40,1S79,11.106,79,40z"/>
  <path id="hicg_highlight" fill="#fff" opacity="0.25" d="M39.999,1C11.105,1,1,11.106,1,40c0,28.893,10.105,39,38.999,39   C68.896,79,79,68.893,79,40C79,11.106,68.896,1,39.999,1z M39.999,78.025C11.57,78.025,1.976,68.43,1.976,40   c0-28.429,9.595-38.024,38.023-38.024c28.43,0,38.024,9.596,38.024,38.024C78.023,68.43,68.429,78.025,39.999,78.025z"/>
  <path id="hicg_overlay" opacity="0.4" fill="url(#hicg_overlay_grad)" d="M78.977,40c0,28.893-10.1,39-38.977,39S1.023,68.893,1.023,40c0-28.894,10.1-39,38.977-39S78.977,11.106,78.977,40z"/>
 </g>
<g xmlns:sodipodi="http://sodipodi.sourceforge.net/DTD/sodipodi-0.dtd" xmlns:inkscape="http://www.inkscape.org/namespaces/inkscape" xmlns:rdf="http://www.w3.org/1999/02/22-rdf-syntax-ns#" xmlns:cc="http://creativecommons.org/ns#" xmlns:dc="http://purl.org/dc/elements/1.1/" transform="translate(13, 13) scale(1.125)" filter="url(#hicg_drop_shadow)">
  <defs xmlns="http://www.w3.org/2000/svg" id="defs3927"/>
  <sodipodi:namedview xmlns:sodipodi="http://sodipodi.sourceforge.net/DTD/sodipodi-0.dtd" xmlns:inkscape="http://www.inkscape.org/namespaces/inkscape" id="base" pagecolor="#ffffff" bordercolor="#666666" borderopacity="1.0" inkscape:pageopacity="0.0" inkscape:pageshadow="2" inkscape:zoom="7.2407734" inkscape:cx="-39.500107" inkscape:cy="44.331195" inkscape:current-layer="layer1" showgrid="true" inkscape:grid-bbox="true" inkscape:document-units="px" inkscape:window-width="1920" inkscape:window-height="1053" inkscape:window-x="0" inkscape:window-y="27" inkscape:window-maximized="1"/>
  <metadata xmlns="http://www.w3.org/2000/svg" xmlns:rdf="http://www.w3.org/1999/02/22-rdf-syntax-ns#" xmlns:cc="http://creativecommons.org/ns#" xmlns:dc="http://purl.org/dc/elements/1.1/" id="metadata3930">
    <rdf:RDF>
      <cc:Work rdf:about="">
        <dc:format>image/svg+xml</dc:format>
        <dc:type rdf:resource="http://purl.org/dc/dcmitype/StillImage"/>
        <dc:title/>
      </cc:Work>
    </rdf:RDF>
  </metadata>
  <g xmlns="http://www.w3.org/2000/svg" xmlns:inkscape="http://www.inkscape.org/namespaces/inkscape" xmlns:sodipodi="http://sodipodi.sourceforge.net/DTD/sodipodi-0.dtd" id="layer1" inkscape:label="Layer 1" inkscape:groupmode="layer">
    <path d="m 6.9038855,39.82999 c 0.33364,-0.278035 0.834103,-0.667282 1.501382,-0.611677 0.667281,0.05561 2.1686655,0.166821 2.7247315,0.05561 0.556067,-0.111214 1.000922,0.05561 1.167741,-0.389247 0.166821,-0.444854 0.222427,-1.890631 0.667281,-2.446698 0.444856,-0.556067 1.668202,-1.167742 1.835023,-1.723809 0.166819,-0.556067 0.222427,-0.778495 0,-1.334562 -0.222427,-0.556068 -0.722888,-1.056529 -1.445775,-1.390169 -0.722889,-0.333639 -1.390168,-0.556066 -1.390168,-0.556066 0,0 -1.445777,1.334561 -1.501382,1.668201 -0.05561,0.333641 0.111214,0.667282 -0.222429,0.834101 -0.3336405,0.166821 -0.8897085,-0.333641 -1.0009215,-1.223347 -0.111212,-0.88971 0.278035,-1.946236 0.222428,-2.557911 -0.05561,-0.611674 -0.444855,-1.167742 -0.111215,-1.779415 0.333642,-0.611675 1.1121375,-1.55699 1.7238115,-2.001843 0.611673,-0.444853 1.668201,-0.500461 1.835023,-1.056529 0.166819,-0.556066 -1.056528,-2.66912 -1.056528,-3.169583 0,-0.500462 0.166818,-1.445775 -0.222428,-2.22427 -0.389247,-0.778494 -0.8341,-2.446697 -2.5023035,-3.503224 -1.668202,-1.056529 -2.835945,-1.501383 -3.113978,-2.279878 -0.2780341,-0.778495 -0.05561,-0.778495 0.278033,-1.000921 C 6.6258515,12.916326 5.4025039,11.637372 5.0132579,10.414024 4.6240089,9.1906756 3.9567289,6.7439789 4.234763,6.5215506 c 0.2780341,-0.2224291 1.1121345,0 1.2789547,0.4448552 0.1668203,0.4448545 0.8341028,3.1695852 0.8341028,3.1695852 0,0 -0.166822,-2.0574513 0.111212,-2.6691257 0.278034,-0.6116736 0.611674,-1.2233458 0.945315,-1.0565253 0.333641,0.1668198 0.16682,3.781255 0.16682,3.781255 0,0 0.333639,-0.8340996 0.556068,-1.3345598 0.222426,-0.5004602 0.389246,-0.9453147 0.667279,-0.6672814 0.278034,0.2780354 0.05561,2.9471562 0.05561,2.9471562 0,0 0.444856,-0.66728 0.778496,-0.8341 0.333639,-0.166819 0.5004605,-0.278034 0.7228865,0.111214 0.222428,0.389248 0.16682,0.889708 0.16682,0.889708 0,0 0.166821,-0.556067 0.556068,-0.556067 0.389247,0 0.889709,0.166819 0.722888,0.611672 -0.166821,0.444855 1.501383,0.05561 1.390168,0.834103 -0.111213,0.778493 0,1.50138 0.444854,1.50138 0.444853,0 0.722889,0.611676 1.612594,0.389248 0.556067,0.33364 -0.278034,2.391089 0.111212,2.113055 0.389248,-0.278033 1.278958,-0.500459 1.612599,0.111215 0.33364,0.611673 -0.444856,1.334562 -2e-6,1.890631 0.444854,0.556066 0,1.056527 0.667281,1.501381 0.667282,0.444853 0.722888,0.111214 0.889707,1.112134 0.166822,1.000922 0.166822,1.445775 0.444856,1.835025 0.278031,0.389246 0.611673,0.667279 0.556066,1.501379 -0.05561,0.834103 -0.556066,1.612595 0.111215,1.501382 0.66728,-0.111214 0.945313,-0.778493 1.445773,-1.056528 0.500464,-0.278032 0.611676,-0.33364 1.278958,-0.8341 0.667281,-0.500461 0.778495,-1.167742 1.167741,-1.334562 0.389248,-0.166821 0.722888,-0.111212 1.278955,-0.333641 0.556068,-0.222426 1.112135,-0.722886 1.39017,-0.945314 0.278032,-0.222427 0.278032,-0.333641 0.778492,-0.778494 0.500462,-0.444855 1.000921,-0.722889 1.334563,-1.445775 0.333641,-0.722888 0.278033,-0.778495 0.667281,-1.835024 0.389247,-1.056529 0.278033,-1.390168 0.500462,-1.835021 0.222426,-0.444856 0.222426,-0.834103 0.611672,-1.223351 0.389249,-0.389245 0.722888,-0.834101 0.778495,-0.444853 0.0556,0.389248 0.0556,0.945315 0.0556,1.278956 0,0.333638 0.500462,-0.500462 0.945315,-1.334562 0.444854,-0.834101 0.222427,-0.945316 0.389247,-1.668202 0.16682,-0.722889 0,-1.223348 0.05561,-2.0574491 0.05561,-0.8341005 0.166821,-0.8897075 0.222428,-2.1130577 0.05561,-1.2233466 0.154445,-1.4287788 0.154445,-2.3184836 0,-0.8897116 -0.03234,-1.249588 -0.04323,-1.907629 0.193056,-0.5050819 0.409377,-0.6595213 0.556067,-0.6116726 0.180679,0.047848 0.42324,0.050998 0.568444,0.7228844 0.111212,0.7228906 0.211535,1.261961 0.321264,2.6135189 -0.111214,1.3345621 -0.166819,2.5023059 0.05561,2.8359448 0.222426,0.3336403 0.389246,0.2780346 0.556067,-0.1112127 0.166819,-0.3892475 0.166819,-0.5560674 0.389248,-1.2233502 0.222425,-0.6672792 0.208399,-1.1045466 0.322747,-2.0358314 -0.05561,-1.3901735 0.01089,-2.0234609 0.0665,-3.0799859 0.05561,-1.0565321 -0.0061,-1.0873871 0.111214,-1.72380708 0.100317,-0.6024397 0.240906,-0.74599395 0.722886,-0.66728211 0.278036,0.33364054 0.333641,1.16773679 0.444855,1.89062739 0.111214,0.7228844 0.111214,0.6672821 0.16682,2.0018391 0.05561,1.3345646 0.0077,1.8673619 -0.103457,2.3122142 -0.02624,0.4958455 -0.125073,0.9885504 -0.06336,1.1910131 0.33364,-0.2224284 0.33364,-0.6116737 0.667281,-1.3901692 0.333641,-0.7784935 0.611674,-1.445776 0.722887,-2.3354806 0.111214,-0.8897109 0.407894,-1.2155927 0.597815,-2.1949015 0.444855,-0.94531323 0.542207,-1.1738444 0.84796,-1.19711042 0.322748,0.23166268 0.475709,0.44023125 0.444855,1.16774302 -0.16682,0.7784939 -0.16682,1.1677367 -0.444855,1.9462306 -0.278034,0.7785001 -0.222428,1.1121417 -0.611675,1.9462368 -0.236285,0.7321321 -0.265488,0.9807915 -0.389245,1.2233507 0.556067,0.05561 0.548309,-0.1653364 0.889705,-0.5560686 0.562342,-1.0705582 0.349153,-0.8449957 0.55607,-1.1677438 0.30889,-0.6456602 0.57306,-0.8834325 0.834099,-0.778493 0.278034,0.4448596 0.389249,0.5560703 0.166821,1.056532 -0.222426,0.5004544 -0.05561,0.1668206 -0.389247,0.8897048 -0.333639,0.7228885 -0.667281,1.0009217 -0.222428,0.9453147 0.444854,-0.05561 0.500461,0 0.778495,-0.4448531 0.278034,-0.4448524 0,-0.5004616 0.611675,-0.7784935 0.611674,-0.2780319 1.000922,-0.7784934 1.167741,-0.3892502 0.166821,0.3892502 0.222427,0.333641 -0.166819,0.8897118 -0.389248,0.5560658 -0.778496,0.722885 -0.611675,1.0009203 0.16682,0.2780319 0.611675,0.3336405 0.945315,0.3336405 0.333639,0 0.389246,0.055602 0.222427,0.6116742 -0.166821,0.5560674 -0.222427,0.5560674 -0.278035,0.8341006 -0.05561,0.278034 0.222427,0.5004601 0.222427,0.5004601 0,0 0.500461,-0.3336403 0.111212,0.5004593 -0.389246,0.834103 -0.611671,0.611677 -0.8341,1.000922 -0.222426,0.389248 -0.444853,0.778496 -0.111212,0.778496 0.333641,0 0.667281,-0.05561 0.611673,0.222427 -0.05561,0.278033 -0.556067,0.556065 -0.278032,0.722886 0.278032,0.16682 0.500459,-0.05561 0.722886,0.16682 0.222427,0.222428 0,0.611674 0,0.889709 0,0.278032 -0.05561,0.50046 0.05561,0.778493 0.111212,0.278034 0.333641,0.556067 0.16682,0.834101 -0.16682,0.278033 0.05561,0.333641 -0.389246,0.611674 -0.444855,0.278034 -0.722889,0.222429 -0.722889,0.500461 0,0.278033 -0.05561,0.222427 0.222426,0.444854 0.278036,0.222427 0.611675,0.0556 0.389249,0.556067 -0.222428,0.500463 -0.166821,0.444856 -0.278034,0.88971 -0.111215,0.444855 0.05561,0.222427 -0.444854,1.278956 -0.500461,1.056527 -1.000921,1.835022 -1.501382,2.113054 -0.500461,0.278034 -0.389247,0.88971 -0.05561,1.000923 0.33364,0.111213 0.389246,0.611673 0.05561,1.334562 -0.33364,0.722887 -0.722888,1.6682 -0.834102,2.168661 -0.111213,0.500461 -0.222427,0.556067 -0.778494,1.167741 -0.556067,0.611676 -1.000922,1.167741 -1.501383,1.334562 -0.500459,0.166821 -0.556067,0.722889 -0.889707,1.000921 -0.333641,0.278035 -0.444853,0.444854 -1.167741,0.444854 -0.722889,0 -0.722889,-0.166819 -1.445775,0.05561 -0.722889,0.222426 -1.056529,0.444853 -1.112135,0.778494 -0.05561,0.33364 -0.278035,0.500462 -0.722888,0.389248 -0.444852,-0.111213 -0.111214,0.222425 -0.667281,0.444852 -0.556067,0.222427 -0.389248,0.500462 -1.056527,0.444854 -0.667282,-0.05561 -1.000922,-0.556067 -1.167742,0 -0.166821,0.556069 -0.222426,1.000923 -0.945314,0.500461 -0.722889,-0.500461 -1.112137,-1.835021 -1.501383,-0.444853 -0.389248,1.390167 -0.389248,1.723809 0.0556,2.113056 0.444856,0.389246 0.55607,0.722887 1.556989,1.112134 1.000923,0.389248 1.000923,0.834102 1.723809,1.112135 0.722889,0.278034 0.778496,0.389248 1.890631,0.945315 1.112135,0.556069 1.390167,0.722889 2.057449,1.112135 0.667281,0.389247 0.8341,0.778495 1.000921,1.167741 0.166819,0.389248 0.889708,0.834104 0.611675,1.390171 -0.278034,0.556066 -0.834102,0.222426 -0.834102,0.500459 0,0.278034 0.111214,0.500463 -0.111213,1.05653 -0.222427,0.556065 -0.166822,0.778493 -0.945314,1.000919 -0.778495,0.222427 -1.22335,0.333642 -1.612596,0.166822 -0.389248,-0.166822 -0.50046,0.50046 -0.889709,0.333638 -0.389246,-0.166818 -0.556066,-0.667279 -0.834101,-0.389246 -0.278032,0.278034 0.222428,0.444856 -0.444852,0.611675 -0.667282,0.166821 -0.722889,-0.278033 -0.778495,0.111213 -0.05561,0.389247 0.16682,0.778496 -0.556066,0.389247 -0.722889,-0.389247 -0.500462,-1.167741 -1.05653,-0.611674 -0.556067,0.556067 -0.278034,1.223348 -1.278955,0.667281 -1.000923,-0.556067 -0.667281,-0.611674 -1.445775,-0.556067 -0.778494,0.05561 -0.778494,0.111213 -1.056527,-0.500462 -0.278035,-0.611671 0.278033,-0.444853 -0.945316,-0.50046 -1.223348,-0.05561 -0.611674,0.722889 -1.390167,-0.33364 -0.778497,-1.056527 -0.945316,-2.113055 -1.278958,-0.945313 -0.33364,1.167742 0,1.445773 -0.500462,1.779413 -0.50046,0.333643 -3.05837,0.222429 -3.05837,0.222429 0,0 -0.0556,1.278955 -0.278032,1.501381 -0.222429,0.222427 -0.778496,-0.222426 -1.278956,0.222427 -0.500461,0.444853 -0.16682,0.722889 -0.611674,1.112134 -0.444854,0.389247 -1.334562,0.444855 -1.334562,0.444855 0,0 0.611675,-0.50046 0.778494,-0.945314 0.166822,-0.444856 0.389248,-1.223349 0.389248,-1.223349 0,0 -0.889707,0.333641 -1.278955,0.389247 -0.389246,0.0556 -1.000922,-0.05561 -1.000922,-0.05561 l 0.166822,1.278953 c 0,0 -1.056528,0 -1.056528,-0.444853 0,-0.444853 0.333641,-1.668202 0.611674,-1.835021 0.278032,-0.166821 0.667281,-0.111214 0.667281,-0.111214 0,0 -0.111214,-0.556069 0.166819,-0.667282 0.278034,-0.111214 0.444854,0 0.889707,0 0.444854,0 2.446697,-0.611673 2.446697,-0.611673 0,0 -0.0556,-1.445775 0.166821,-2.057449 0.222426,-0.611675 1.278954,-2.335486 0.778494,-2.613518 -0.50046,-0.278033 -0.889708,-0.05561 -1.167742,0.222427 -0.278033,0.278034 -0.778494,1.112135 -1.835021,1.334561 -1.056528,0.222427 -1.890629,0.333641 -1.890629,0.333641 0,0 -0.222427,0.111214 -0.222427,0.556069 0,0.444853 0.389246,0.889706 -0.166821,1.445774 -0.556066,0.556069 -1.000919,1.056529 -1.612593,0.778496 -0.6116735,-0.278035 -0.7228885,-0.611674 -0.7228885,-0.611674 0,0 0.4448525,0.278033 1.1677405,0.111214 0.722889,-0.166821 0.444854,-1.556989 0.389249,-1.835023 -0.05561,-0.278033 -0.611674,-0.556069 -0.945316,-0.278033 -0.333639,0.278033 -0.7784955,1.000919 -0.5004585,1.278953 0.2780335,0.278036 -0.778496,-0.611674 -0.722889,-1.00092 0.05561,-0.389248 0.222426,-0.667282 0.222426,-0.667282 0,0 -0.722887,0 -1.167741,-0.05561 -0.444853,-0.05561 -0.778494,-0.278033 -0.778494,0.05561 0,0.333641 0.222427,1.835024 -0.278033,0.889709 -0.500463,-0.945316 -0.722889,-1.167742 -0.222429,-1.668202 z" id="path10416-1" sodipodi:nodetypes="cccccccccccccccccccccccccccccccccccccccccccccccccccccccccccccccccccccccccccccccccccccccccccccccccccccccccccccccccccccccccccccccccccccccccccccccccccccccccccccccccccccccccccccccccccccccccccccccc" style="fill:#ffffff;fill-opacity:1;fill-rule:evenodd;stroke:#999999;stroke-width:0.12559303pt;stroke-linecap:butt;stroke-linejoin:miter;stroke-opacity:1" inkscape:connector-curvature="0" inkscape:export-filename="/home/mike/src/earie/src/text3778-7.png" inkscape:export-xdpi="136.36182" inkscape:export-ydpi="136.36182"/>
  </g>
</g></svg>
