<?xml version="1.0" encoding="UTF-8" standalone="no"?>
<!-- Created with Inkscape (http://www.inkscape.org/) -->

<svg
   xmlns:dc="http://purl.org/dc/elements/1.1/"
   xmlns:cc="http://creativecommons.org/ns#"
   xmlns:rdf="http://www.w3.org/1999/02/22-rdf-syntax-ns#"
   xmlns:svg="http://www.w3.org/2000/svg"
   xmlns="http://www.w3.org/2000/svg"
   xmlns:sodipodi="http://sodipodi.sourceforge.net/DTD/sodipodi-0.dtd"
   xmlns:inkscape="http://www.inkscape.org/namespaces/inkscape"
   height="380.84689"
   id="svg10395"
   inkscape:version="0.48.3.1 r9886"
   sodipodi:docname="logo.svg"
   sodipodi:version="0.32"
   width="317.05011"
   inkscape:output_extension="org.inkscape.output.svg.inkscape"
   version="1.0"
   inkscape:export-filename="/home/mike/src/earie/src/logo.png"
   inkscape:export-xdpi="136.36182"
   inkscape:export-ydpi="136.36182">
  <metadata
     id="metadata3">
    <rdf:RDF>
      <cc:Work
         rdf:about="">
        <dc:title>eagle</dc:title>
        <dc:description />
        <dc:subject>
          <rdf:Bag>
            <rdf:li />
            <rdf:li>symbol</rdf:li>
            <rdf:li>fly</rdf:li>
            <rdf:li>signs_and_symbols</rdf:li>
            <rdf:li>bird</rdf:li>
            <rdf:li>flight</rdf:li>
            <rdf:li>animal</rdf:li>
            <rdf:li>eagle</rdf:li>
            <rdf:li>wildlife</rdf:li>
          </rdf:Bag>
        </dc:subject>
        <dc:publisher>
          <cc:Agent
             rdf:about="http://www.openclipart.org">
            <dc:title>Jason Knight</dc:title>
          </cc:Agent>
        </dc:publisher>
        <dc:creator>
          <cc:Agent>
            <dc:title>Jason Knight</dc:title>
          </cc:Agent>
        </dc:creator>
        <dc:rights>
          <cc:Agent>
            <dc:title>Jason Knight</dc:title>
          </cc:Agent>
        </dc:rights>
        <dc:date />
        <dc:format>image/svg+xml</dc:format>
        <dc:type
           rdf:resource="http://purl.org/dc/dcmitype/StillImage" />
        <cc:license
           rdf:resource="http://web.resource.org/cc/PublicDomain" />
        <dc:language>en</dc:language>
      </cc:Work>
      <cc:License
         rdf:about="http://web.resource.org/cc/PublicDomain">
        <cc:permits
           rdf:resource="http://web.resource.org/cc/Reproduction" />
        <cc:permits
           rdf:resource="http://web.resource.org/cc/Distribution" />
        <cc:permits
           rdf:resource="http://web.resource.org/cc/DerivativeWorks" />
      </cc:License>
    </rdf:RDF>
  </metadata>
  <defs
     id="defs10397">
    <inkscape:perspective
       sodipodi:type="inkscape:persp3d"
       inkscape:vp_x="0 : 526.18109 : 1"
       inkscape:vp_y="0 : 1000 : 0"
       inkscape:vp_z="744.09448 : 526.18109 : 1"
       inkscape:persp3d-origin="372.04724 : 350.78739 : 1"
       id="perspective17" />
    <linearGradient
       id="linearGradient11775">
      <stop
         id="stop11776"
         offset="0"
         style="stop-color:#000;stop-opacity:1;" />
      <stop
         id="stop11777"
         offset="1"
         style="stop-color:#fff;stop-opacity:1;" />
    </linearGradient>
    <marker
       id="Club"
       inkscape:stockid="Club"
       orient="auto"
       refX="0"
       refY="0"
       style="overflow:visible">
      <path
         d="M -1.5971367,-7.0977635 C -3.4863874,-7.0977635 -5.0235187,-5.5606321 -5.0235187,-3.6713813 C -5.0235187,-3.0147015 -4.7851656,-2.4444556 -4.4641095,-1.9232271 C -4.5028609,-1.8911157 -4.5437814,-1.8647646 -4.5806531,-1.8299921 C -5.2030765,-2.6849849 -6.1700514,-3.275133 -7.307773,-3.275133 C -9.1970245,-3.2751331 -10.734155,-1.7380016 -10.734155,0.15124914 C -10.734155,2.0404999 -9.1970245,3.5776313 -7.307773,3.5776313 C -6.3143268,3.5776313 -5.439154,3.1355702 -4.8137404,2.4588126 C -4.9384274,2.8137041 -5.0235187,3.1803 -5.0235187,3.5776313 C -5.0235187,5.4668819 -3.4863874,7.0040135 -1.5971367,7.0040135 C 0.29211394,7.0040135 1.8292454,5.4668819 1.8292454,3.5776313 C 1.8292454,2.7842354 1.5136868,2.0838028 1.0600576,1.503155 C 2.4152718,1.7663868 3.7718375,2.2973711 4.7661444,3.8340272 C 4.0279463,3.0958289 3.5540908,1.7534117 3.5540908,-0.058529361 L 2.9247554,-0.10514681 L 3.5074733,-0.12845553 C 3.5074733,-1.9403966 3.9580199,-3.2828138 4.6962183,-4.0210121 C 3.7371277,-2.5387813 2.4390549,-1.9946496 1.1299838,-1.7134486 C 1.5341802,-2.2753578 1.8292454,-2.9268556 1.8292454,-3.6713813 C 1.8292454,-5.5606319 0.29211394,-7.0977635 -1.5971367,-7.0977635 z"
         id="path1015"
         style="fill-rule:evenodd;stroke:#000000;stroke-width:0.74587913pt;marker-start:none"
         transform="scale(0.6,0.6)" />
    </marker>
    <marker
       id="SemiCircleIn"
       inkscape:stockid="SemiCircleIn"
       orient="auto"
       refX="0"
       refY="0"
       style="overflow:visible">
      <path
         d="M -0.37450702,-0.04569258 C -0.37450702,2.7143074 1.865493,4.9543074 4.625493,4.9543074 L 4.625493,-5.0456926 C 1.865493,-5.0456926 -0.37450702,-2.8056926 -0.37450702,-0.04569258 z"
         id="path941"
         sodipodi:nodetypes="cccc"
         style="fill-rule:evenodd;stroke:#000000;stroke-width:1pt;marker-start:none;marker-end:none"
         transform="scale(0.6,0.6)" />
    </marker>
    <marker
       id="Dot_s"
       inkscape:stockid="Dot_s"
       orient="auto"
       refX="0"
       refY="0"
       style="overflow:visible">
      <path
         d="M -2.5,-1 C -2.5,1.76 -4.74,4 -7.5,4 C -10.26,4 -12.5,1.76 -12.5,-1 C -12.5,-3.76 -10.26,-6 -7.5,-6 C -4.74,-6 -2.5,-3.76 -2.5,-1 z"
         id="path933"
         style="fill-rule:evenodd;stroke:#000000;stroke-width:1pt;marker-start:none;marker-end:none"
         transform="matrix(0.2,0,0,0.2,1.4250986,0.2)" />
    </marker>
    <filter
       inkscape:collect="always"
       id="filter3790">
      <feGaussianBlur
         inkscape:collect="always"
         stdDeviation="1.4738297"
         id="feGaussianBlur3792" />
    </filter>
    <filter
       color-interpolation-filters="sRGB"
       inkscape:collect="always"
       id="filter3790-3">
      <feGaussianBlur
         inkscape:collect="always"
         stdDeviation="1.4738297"
         id="feGaussianBlur3792-9" />
    </filter>
    <filter
       inkscape:collect="always"
       id="filter3902">
      <feGaussianBlur
         inkscape:collect="always"
         stdDeviation="1.0296094"
         id="feGaussianBlur3904" />
    </filter>
  </defs>
  <sodipodi:namedview
     bordercolor="#666666"
     borderopacity="1.0"
     id="base"
     inkscape:cx="229.59813"
     inkscape:cy="213.58034"
     inkscape:pageopacity="0.0"
     inkscape:pageshadow="2"
     inkscape:window-height="975"
     inkscape:window-width="1314"
     inkscape:window-x="604"
     inkscape:window-y="159"
     inkscape:zoom="1.3519099"
     pagecolor="#ffffff"
     showgrid="false"
     inkscape:current-layer="svg10395"
     inkscape:window-maximized="0" />
  <path
     d="m 63.519421,245.12643 c 1.854229,-1.5452 4.635572,-3.70846 8.344029,-3.39943 3.708457,0.30905 12.052493,0.92712 15.142872,0.30905 3.090378,-0.61808 5.562685,0.30903 6.4898,-2.16327 0.927114,-2.4723 1.23615,-10.5073 3.708457,-13.59768 2.472307,-3.09038 9.271141,-6.4898 10.198261,-9.58018 0.92711,-3.09038 1.23615,-4.32654 0,-7.41692 -1.23615,-3.09038 -4.0175,-5.87173 -8.034997,-7.72595 -4.017493,-1.85423 -7.72595,-3.09038 -7.72595,-3.09038 0,0 -8.034993,7.41691 -8.344029,9.27114 -0.309035,1.85423 0.618079,3.70846 -1.236157,4.63557 -1.854228,0.92712 -4.944607,-1.85423 -5.562685,-6.79883 -0.618072,-4.94462 1.545192,-10.81634 1.236157,-14.21576 -0.309043,-3.39942 -2.472308,-6.4898 -0.618079,-9.88922 1.854229,-3.39942 6.180764,-8.65307 9.580186,-11.12537 3.399414,-2.4723 9.271143,-2.78135 10.198257,-5.87173 0.927114,-3.09038 -5.871728,-14.83382 -5.871728,-17.61517 0,-2.78135 0.927114,-8.03499 -1.23615,-12.36153 C 87.6244,130.16424 85.152093,120.89309 75.88095,115.02137 66.609807,109.14964 60.12,106.67734 58.574814,102.3508 57.029621,98.024266 58.265771,98.024266 60.12,96.788116 61.974229,95.551959 55.175393,88.444089 53.012128,81.645253 50.848857,74.84641 47.1404,61.248732 48.685592,60.012575 c 1.545193,-1.236151 6.180765,0 7.107879,2.472307 0.927114,2.472307 4.635572,17.615178 4.635572,17.615178 0,0 -0.927115,-11.434414 0.618071,-14.833835 1.545193,-3.399422 3.399422,-6.798837 5.25365,-5.871722 1.854229,0.927114 0.927115,21.014593 0.927115,21.014593 0,0 1.854228,-4.635571 3.090385,-7.416914 1.23615,-2.781343 2.163265,-5.25365 3.708457,-3.708457 1.545186,1.545192 0.309036,16.379021 0.309036,16.379021 0,0 2.472307,-3.708457 4.326536,-4.635571 1.854229,-0.927115 2.781343,-1.545193 4.017493,0.618078 1.236157,2.163265 0.927114,4.944608 0.927114,4.944608 0,0 0.927114,-3.090379 3.090386,-3.090379 2.163264,0 4.944607,0.927114 4.017493,3.399414 -0.927114,2.472307 8.344028,0.309043 7.72595,4.635572 -0.618072,4.326534 0,8.344027 2.472311,8.344027 2.4723,0 4.0175,3.399425 8.9621,2.163265 3.09038,1.85423 -1.54519,13.28864 0.61807,11.74345 2.16327,-1.54519 7.10789,-2.78134 8.96212,0.61808 1.85423,3.39942 -2.47231,7.41692 -1e-5,10.50731 2.47231,3.09037 0,5.87172 3.70846,8.34402 3.70846,2.4723 4.0175,0.61808 4.94461,6.18076 0.92712,5.56269 0.92712,8.03499 2.47231,10.19827 1.54518,2.16326 3.39941,3.70845 3.09038,8.34402 -0.30904,4.63558 -3.09038,8.9621 0.61808,8.34403 3.70845,-0.61808 5.25364,-4.32653 8.03498,-5.87173 2.78135,-1.54518 3.39942,-1.85422 7.10788,-4.63557 3.70846,-2.78134 4.32654,-6.4898 6.4898,-7.41691 2.16327,-0.92712 4.0175,-0.61807 7.10788,-1.85423 3.09038,-1.23615 6.18076,-4.01749 7.72596,-5.25365 1.54518,-1.23615 1.54518,-1.85423 4.32652,-4.32653 2.78135,-2.47231 5.56269,-4.0175 7.41692,-8.03499 1.85423,-4.0175 1.54519,-4.32654 3.70846,-10.19827 2.16327,-5.87173 1.54519,-7.72595 2.78135,-10.19825 1.23615,-2.47231 1.23615,-4.63558 3.39941,-6.79885 2.16327,-2.163261 4.0175,-4.635568 4.32654,-2.472303 0.30903,2.163273 0.30903,5.253653 0.30903,7.107883 0,1.85422 2.78135,-2.78135 5.25365,-7.416919 2.47231,-4.635572 1.23615,-5.253649 2.16327,-9.271142 0.92711,-4.017493 0,-6.798836 0.30904,-11.434407 0.30904,-4.635572 0.92711,-4.944614 1.23615,-11.743457 0.30904,-6.798836 0.85834,-7.940535 0.85834,-12.885142 0,-4.944614 -0.17973,-6.944646 -0.24026,-10.601752 1.07292,-2.807022 2.27514,-3.665356 3.09038,-3.399421 1.00413,0.265935 2.35218,0.283364 3.15916,4.017493 0.61807,4.017499 1.17562,7.013426 1.78545,14.524792 -0.61808,7.416915 -0.92711,13.906722 0.30904,15.760951 1.23615,1.854229 2.16326,1.545193 3.09038,-0.618078 0.92711,-2.163265 0.92711,-3.090379 2.16327,-6.798843 1.23615,-3.708457 1.15819,-6.138592 1.79369,-11.314277 -0.30904,-7.725957 0.0605,-11.245502 0.36957,-17.117231 0.30904,-5.871722 -0.0339,-6.043202 0.61808,-9.58018 0.55754,-3.348069 1.33885,-4.145871 4.01749,-3.708458 1.5452,1.854229 1.85423,6.489802 2.47231,10.507295 0.61808,4.0175 0.61808,3.708458 0.92711,11.125371 0.30904,7.416922 0.0431,10.37799 -0.57497,12.850291 -0.1458,2.755671 -0.6951,5.493913 -0.35214,6.619117 1.85423,-1.236157 1.85423,-3.399421 3.70846,-7.725958 1.85423,-4.326528 3.39942,-8.034986 4.01749,-12.9796 0.61808,-4.944606 2.2669,-6.755734 3.3224,-12.198291 2.47231,-5.253648 3.01335,-6.523722 4.71259,-6.653034 1.7937,1.287503 2.64379,2.44663 2.47231,6.489801 -0.92711,4.326532 -0.92711,6.489803 -2.47231,10.816332 -1.54519,4.326535 -1.23615,6.180764 -3.39942,10.816335 -1.31317,4.068851 -1.47547,5.450806 -2.16326,6.798844 3.09038,0.309035 3.04727,-0.918871 4.9446,-3.090387 3.12525,-5.949687 1.94044,-4.696101 3.09039,-6.4898 1.71668,-3.588326 3.18483,-4.909749 4.63557,-4.326529 1.54519,2.472301 2.16327,3.090379 0.92712,5.871722 -1.23615,2.781343 -0.30904,0.927114 -2.16327,4.944607 -1.85423,4.017501 -3.70846,5.562687 -1.23616,5.253651 2.47231,-0.309036 2.78135,0 4.32654,-2.472307 1.54519,-2.472301 0,-2.781344 3.39942,-4.32653 3.39942,-1.545192 5.56269,-4.326535 6.4898,-2.163271 0.92712,2.163271 1.23615,1.854229 -0.92711,4.944615 -2.16327,3.090379 -4.32654,4.017493 -3.39942,5.562686 0.92711,1.545186 3.39942,1.854228 5.25365,1.854228 1.85422,0 2.16326,0.309036 1.23615,3.399422 -0.92712,3.090379 -1.23615,3.090379 -1.5452,4.635571 -0.30903,1.545193 1.23616,2.781343 1.23616,2.781343 0,0 2.78134,-1.854228 0.61807,2.781343 -2.16326,4.635572 -3.39941,3.399422 -4.63557,5.562686 -1.23615,2.163271 -2.4723,4.326536 -0.61807,4.326536 1.85423,0 3.70846,-0.309043 3.39941,1.23615 -0.30903,1.545193 -3.09038,3.090377 -1.54518,4.017491 1.54518,0.927115 2.78134,-0.309035 4.01749,0.927115 1.23615,1.236157 0,3.399421 0,4.944616 0,1.54518 -0.30904,2.78134 0.30904,4.32653 0.61807,1.54519 1.85423,3.09038 0.92711,4.63557 -0.92711,1.54519 0.30904,1.85423 -2.16326,3.39942 -2.47231,1.54519 -4.0175,1.23616 -4.0175,2.78134 0,1.54519 -0.30904,1.23616 1.23615,2.47231 1.5452,1.23615 3.39942,0.30903 2.16327,3.09038 -1.23615,2.78135 -0.92712,2.47231 -1.54519,4.94462 -0.61808,2.47231 0.30904,1.23615 -2.47231,7.10788 -2.78134,5.87172 -5.56268,10.19826 -8.34402,11.74344 -2.78135,1.54519 -2.16327,4.94462 -0.30904,5.56269 1.85423,0.61808 2.16326,3.39942 0.30904,7.41692 -1.85423,4.01749 -4.0175,9.27114 -4.63558,12.05248 -0.61807,2.78135 -1.23615,3.09038 -4.32653,6.4898 -3.09038,3.39943 -5.56269,6.4898 -8.34403,7.41692 -2.78134,0.92711 -3.09038,4.0175 -4.94461,5.56268 -1.85423,1.5452 -2.4723,2.47231 -6.4898,2.47231 -4.0175,0 -4.0175,-0.92711 -8.03499,0.30904 -4.0175,1.23615 -5.87173,2.4723 -6.18076,4.32653 -0.30904,1.85423 -1.5452,2.78135 -4.0175,2.16327 -2.4723,-0.61807 -0.61808,1.23615 -3.70846,2.4723 -3.09038,1.23615 -2.16327,2.78135 -5.87172,2.47231 -3.70846,-0.30904 -5.56269,-3.09038 -6.4898,0 -0.92712,3.09038 -1.23615,5.56269 -5.25365,2.78134 -4.0175,-2.78134 -6.18077,-10.19825 -8.34403,-2.4723 -2.16327,7.72595 -2.16327,9.58018 0.30903,11.74345 2.47231,2.16326 3.09039,4.01749 8.65307,6.18076 5.56269,2.16327 5.56269,4.63557 9.58018,6.18076 4.0175,1.54519 4.32654,2.16327 10.5073,5.25365 6.18077,3.09039 7.72595,4.0175 11.43441,6.18076 3.70846,2.16327 4.63557,4.32654 5.56269,6.4898 0.92711,2.16327 4.94461,4.63558 3.39942,7.72596 -1.54519,3.09038 -4.63557,1.23615 -4.63557,2.78134 0,1.54519 0.61808,2.78135 -0.61808,5.87173 -1.23615,3.09037 -0.92712,4.32653 -5.25364,5.56268 -4.32654,1.23615 -6.79885,1.85423 -8.96211,0.92712 -2.16327,-0.92712 -2.78134,2.78134 -4.94462,1.85422 -2.16326,-0.92711 -3.09037,-3.70845 -4.63557,-2.16326 -1.54518,1.54519 1.23616,2.47231 -2.4723,3.39942 -3.70846,0.92712 -4.0175,-1.54519 -4.32653,0.61807 -0.30904,2.16327 0.92711,4.32654 -3.09038,2.16327 -4.0175,-2.16327 -2.78135,-6.4898 -5.87173,-3.39942 -3.09038,3.09038 -1.54519,6.79884 -7.10788,3.70846 -5.56269,-3.09038 -3.70846,-3.39942 -8.03499,-3.09038 -4.32653,0.30904 -4.32653,0.61807 -5.87172,-2.78135 -1.5452,-3.39941 1.54519,-2.4723 -5.25365,-2.78134 -6.79884,-0.30904 -3.39942,4.0175 -7.72595,-1.85423 -4.32654,-5.87172 -5.25365,-11.74344 -7.10788,-5.25364 -1.85423,6.4898 0,8.03498 -2.78135,9.88921 -2.78134,1.85424 -16.9971,1.23616 -16.9971,1.23616 0,0 -0.30903,7.10788 -1.54518,8.34403 -1.23616,1.23615 -4.32654,-1.23615 -7.10788,1.23615 -2.78134,2.4723 -0.92711,4.0175 -3.39942,6.18076 -2.4723,2.16327 -7.41691,2.47231 -7.41691,2.47231 0,0 3.39942,-2.78134 4.32653,-5.25365 0.92712,-2.47231 2.16327,-6.79884 2.16327,-6.79884 0,0 -4.94461,1.85423 -7.10788,2.16327 -2.163267,0.30903 -5.562688,-0.30904 -5.562688,-0.30904 l 0.927114,7.10787 c 0,0 -5.871721,0 -5.871721,-2.4723 0,-2.4723 1.854228,-9.27114 3.399421,-10.19825 1.545186,-0.92712 3.708457,-0.61808 3.708457,-0.61808 0,0 -0.618078,-3.09039 0.927114,-3.70846 1.545186,-0.61808 2.472303,0 4.944603,0 2.47231,0 13.59768,-3.39942 13.59768,-3.39942 0,0 -0.30903,-8.03499 0.92712,-11.43441 1.23615,-3.39942 7.10787,-12.97961 4.32653,-14.52479 -2.78134,-1.54519 -4.94461,-0.30904 -6.4898,1.23615 -1.54519,1.54519 -4.32653,6.18076 -10.19825,7.41691 -5.871733,1.23615 -10.507304,1.85423 -10.507304,1.85423 0,0 -1.23615,0.61808 -1.23615,3.09039 0,2.4723 2.163264,4.9446 -0.927114,8.03498 -3.090386,3.09039 -5.562686,5.87173 -8.962108,4.32654 -3.399421,-1.54519 -4.0175,-3.39942 -4.0175,-3.39942 0,0 2.472308,1.54519 6.489808,0.61808 4.017493,-0.92712 2.4723,-8.65307 2.163264,-10.19826 -0.309036,-1.54519 -3.399422,-3.09039 -5.25365,-1.54519 -1.854229,1.54519 -4.326536,5.56268 -2.781343,7.10787 1.545193,1.5452 -4.326536,-3.39942 -4.017493,-5.56268 0.309036,-2.16327 1.23615,-3.70846 1.23615,-3.70846 0,0 -4.017493,0 -6.4898,-0.30904 -2.472307,-0.30904 -4.326536,-1.54519 -4.326536,0.30904 0,1.85423 1.236157,10.19826 -1.545186,4.94461 -2.781349,-5.25365 -4.0175,-6.4898 -1.236157,-9.27114 z"
     id="path10416"
     sodipodi:nodetypes="cccccccccccccccccccccccccccccccccccccccccccccccccccccccccccccccccccccccccccccccccccccccccccccccccccccccccccccccccccccccccccccccccccccccccccccccccccccccccccccccccccccccccccccccccccccccccccccccc"
     style="fill:#ffffff;fill-opacity:1;fill-rule:evenodd;stroke:#999999;stroke-width:0.69799156pt;stroke-linecap:butt;stroke-linejoin:miter;stroke-opacity:1;filter:url(#filter3790)"
     inkscape:connector-curvature="0"
     inkscape:export-filename="/home/mike/src/earie/src/text3778-7.png"
     inkscape:export-xdpi="136.36182"
     inkscape:export-ydpi="136.36182" />
  <text
     xml:space="preserve"
     style="font-size:48px;font-style:normal;font-variant:normal;font-weight:bold;font-stretch:normal;line-height:125%;letter-spacing:0px;word-spacing:0px;fill:#ffffff;fill-opacity:0;stroke:#999999;stroke-opacity:1;filter:url(#filter3902);font-family:Impact;-inkscape-font-specification:Impact Bold"
     x="110.06802"
     y="351.37216"
     id="text3778"
     sodipodi:linespacing="125%"
     inkscape:export-xdpi="136.36182"
     inkscape:export-ydpi="136.36182"><tspan
       sodipodi:role="line"
       id="tspan3780"
       x="110.06802"
       y="351.37216">Eyrie</tspan></text>
  <path
     d="m 62.542121,244.99729 c 1.85423,-1.5452 4.63558,-3.70846 8.34403,-3.39943 3.70846,0.30905 12.0525,0.92712 15.14287,0.30905 3.09038,-0.61808 5.56269,0.30903 6.4898,-2.16327 0.92712,-2.4723 1.23615,-10.5073 3.70846,-13.59768 2.47231,-3.09038 9.271139,-6.4898 10.198259,-9.58018 0.92711,-3.09038 1.23615,-4.32654 0,-7.41692 -1.23615,-3.09038 -4.0175,-5.87173 -8.034989,-7.72595 -4.0175,-1.85423 -7.72595,-3.09038 -7.72595,-3.09038 0,0 -8.035,7.41691 -8.34403,9.27114 -0.30904,1.85423 0.61808,3.70846 -1.23616,4.63557 -1.85423,0.92712 -4.94461,-1.85423 -5.56269,-6.79883 -0.61807,-4.94462 1.5452,-10.81634 1.23616,-14.21576 -0.30904,-3.39942 -2.47231,-6.4898 -0.61808,-9.88922 1.85423,-3.39942 6.18077,-8.65307 9.58019,-11.12537 3.39941,-2.4723 9.27114,-2.78135 10.19826,-5.87173 0.92711,-3.09038 -5.87173,-14.83382 -5.87173,-17.61517 0,-2.78135 0.92711,-8.03499 -1.23615,-12.36153 -2.16327,-4.32653 -4.63557,-13.59768 -13.90672,-19.4694 -9.27114,-5.87173 -15.76095,-8.34403 -17.306134,-12.67057 -1.545193,-4.326539 -0.309043,-4.326539 1.545184,-5.562689 1.85423,-1.23615 -4.944605,-8.34402 -7.10787,-15.14286 -2.163271,-6.79884 -5.871728,-20.39652 -4.326536,-21.63268 1.545193,-1.23615 6.180765,0 7.107879,2.47231 0.927114,2.47231 4.635577,17.61518 4.635577,17.61518 0,0 -0.92712,-11.43442 0.61807,-14.83384 1.54519,-3.39942 3.39942,-6.79883 5.25365,-5.87172 1.85423,0.92712 0.92711,21.01459 0.92711,21.01459 0,0 1.85423,-4.63557 3.09039,-7.41691 1.23615,-2.78134 2.16326,-5.25365 3.70845,-3.70846 1.54519,1.5452 0.30904,16.37902 0.30904,16.37902 0,0 2.47231,-3.70845 4.32654,-4.63557 1.85422,-0.92711 2.78134,-1.54519 4.01749,0.61808 1.23616,2.16327 0.92711,4.94461 0.92711,4.94461 0,0 0.92712,-3.09038 3.09039,-3.09038 2.16326,0 4.94461,0.92711 4.01749,3.39941 -0.92711,2.47231 8.34403,0.30905 7.72595,4.63558 -0.61807,4.32653 0,8.34402 2.47231,8.34402 2.472299,0 4.017499,3.399429 8.962099,2.163269 3.09038,1.85423 -1.54519,13.28864 0.61807,11.74345 2.16327,-1.54519 7.10789,-2.78134 8.96212,0.61808 1.85423,3.39942 -2.47231,7.41692 -1e-5,10.50731 2.47231,3.09037 0,5.87172 3.70846,8.34402 3.70846,2.4723 4.0175,0.61808 4.94461,6.18076 0.92712,5.56269 0.92712,8.03499 2.47231,10.19827 1.54518,2.16326 3.39941,3.70845 3.09038,8.34402 -0.30904,4.63558 -3.09038,8.9621 0.61808,8.34403 3.70845,-0.61808 5.25364,-4.32653 8.03498,-5.87173 2.78136,-1.54518 3.39943,-1.85422 7.10789,-4.63557 3.70846,-2.78134 4.32654,-6.4898 6.4898,-7.41691 2.16327,-0.92712 4.0175,-0.61807 7.10788,-1.85423 3.09038,-1.23615 6.18076,-4.01749 7.72596,-5.25365 1.54518,-1.23615 1.54518,-1.85423 4.32652,-4.32653 2.78135,-2.47231 5.56269,-4.0175 7.41692,-8.03499 1.85423,-4.0175 1.54519,-4.32654 3.70846,-10.19827 2.16327,-5.87173 1.54519,-7.72595 2.78135,-10.19825 1.23615,-2.47231 1.23615,-4.63558 3.39941,-6.79885 2.16327,-2.163259 4.0175,-4.635569 4.32654,-2.472299 0.30903,2.163269 0.30903,5.253649 0.30903,7.107879 0,1.85422 2.78135,-2.78135 5.25365,-7.416919 2.47231,-4.63557 1.23615,-5.25365 2.16327,-9.27114 0.92711,-4.0175 0,-6.79884 0.30904,-11.43441 0.30904,-4.63557 0.92711,-4.94461 1.23615,-11.74346 0.30904,-6.79883 0.85834,-7.94053 0.85834,-12.88514 0,-4.94461 -0.17973,-6.94464 -0.24026,-10.60175 1.07292,-2.80702 2.27514,-3.66536 3.09038,-3.39942 1.00413,0.26593 2.35218,0.28336 3.15916,4.01749 0.61807,4.0175 1.17562,7.01343 1.78545,14.52479 -0.61808,7.41692 -0.92711,13.90673 0.30904,15.76095 1.23615,1.85423 2.16326,1.5452 3.09038,-0.61807 0.92711,-2.16327 0.92711,-3.09038 2.16327,-6.79885 1.23615,-3.70845 1.15819,-6.13859 1.79369,-11.31427 -0.30904,-7.72596 0.0605,-11.24551 0.36957,-17.11723 0.30904,-5.87173 -0.0339,-6.04321 0.61808,-9.58018 0.55754,-3.34807 1.33885,-4.14588 4.01749,-3.70846 1.5452,1.85423 1.85423,6.4898 2.47231,10.50729 0.61808,4.0175 0.61808,3.70846 0.92711,11.12537 0.30904,7.41693 0.0431,10.37799 -0.57497,12.85029 -0.1458,2.75568 -0.6951,5.49392 -0.35214,6.61912 1.85423,-1.23616 1.85423,-3.39942 3.70846,-7.72596 1.85423,-4.32652 3.39942,-8.03498 4.01749,-12.9796 0.61808,-4.9446 2.2669,-6.75573 3.3224,-12.19829 2.47231,-5.25365 3.01335,-6.52372 4.71259,-6.65303 1.7937,1.2875 2.64379,2.44663 2.47231,6.4898 -0.92711,4.32653 -0.92711,6.4898 -2.47231,10.81633 -1.54519,4.32654 -1.23615,6.18077 -3.39942,10.81634 -1.31317,4.06885 -1.47547,5.4508 -2.16326,6.79884 3.09038,0.30904 3.04727,-0.91887 4.9446,-3.09039 3.12525,-5.94968 1.94044,-4.6961 3.09039,-6.4898 1.71668,-3.58832 3.18483,-4.90975 4.63557,-4.32653 1.54519,2.47231 2.16327,3.09038 0.92712,5.87173 -1.23615,2.78134 -0.30904,0.92711 -2.16327,4.9446 -1.85423,4.0175 -3.70846,5.56269 -1.23616,5.25365 2.47231,-0.30903 2.78135,0 4.32654,-2.4723 1.54519,-2.4723 0,-2.78135 3.39942,-4.32653 3.39942,-1.54519 5.56269,-4.32654 6.4898,-2.16327 0.92712,2.16327 1.23615,1.85423 -0.92711,4.94461 -2.16327,3.09038 -4.32654,4.01749 -3.39942,5.56269 0.92711,1.54518 3.39942,1.85423 5.25365,1.85423 1.85422,0 2.16326,0.30903 1.23615,3.39942 -0.92712,3.09038 -1.23615,3.09038 -1.5452,4.63557 -0.30903,1.54519 1.23616,2.78134 1.23616,2.78134 0,0 2.78134,-1.85423 0.61807,2.78134 -2.16326,4.63558 -3.39941,3.39943 -4.63557,5.56269 -1.23615,2.16327 -2.4723,4.32654 -0.61807,4.32654 1.85423,0 3.70846,-0.30905 3.39941,1.23615 -0.30903,1.54519 -3.09038,3.09037 -1.54518,4.01749 1.54518,0.92711 2.78134,-0.30904 4.01749,0.92711 1.23615,1.23616 0,3.39942 0,4.944619 0,1.54518 -0.30904,2.78134 0.30904,4.32653 0.61807,1.54519 1.85423,3.09038 0.92711,4.63557 -0.92711,1.54519 0.30904,1.85423 -2.16326,3.39942 -2.47231,1.54519 -4.0175,1.23616 -4.0175,2.78134 0,1.54519 -0.30904,1.23616 1.23615,2.47231 1.5452,1.23615 3.39942,0.30903 2.16327,3.09038 -1.23615,2.78135 -0.92712,2.47231 -1.54519,4.94462 -0.61808,2.47231 0.30904,1.23615 -2.47231,7.10788 -2.78134,5.87172 -5.56268,10.19826 -8.34402,11.74344 -2.78135,1.54519 -2.16327,4.94462 -0.30904,5.56269 1.85423,0.61808 2.16326,3.39942 0.30904,7.41692 -1.85423,4.01749 -4.0175,9.27114 -4.63558,12.05248 -0.61807,2.78135 -1.23615,3.09038 -4.32653,6.4898 -3.09038,3.39943 -5.56269,6.4898 -8.34403,7.41692 -2.78134,0.92711 -3.09038,4.0175 -4.94461,5.56268 -1.85423,1.5452 -2.4723,2.47231 -6.4898,2.47231 -4.0175,0 -4.0175,-0.92711 -8.03499,0.30904 -4.0175,1.23615 -5.87173,2.4723 -6.18076,4.32653 -0.30904,1.85423 -1.5452,2.78135 -4.0175,2.16327 -2.4723,-0.61807 -0.61808,1.23615 -3.70846,2.4723 -3.09038,1.23615 -2.16327,2.78135 -5.87172,2.47231 -3.70846,-0.30904 -5.56269,-3.09038 -6.4898,0 -0.92712,3.09038 -1.23615,5.56269 -5.25365,2.78134 -4.0175,-2.78134 -6.18077,-10.19825 -8.34403,-2.4723 -2.16327,7.72595 -2.16327,9.58018 0.30903,11.74345 2.47231,2.16326 3.09039,4.01749 8.65307,6.18076 5.56269,2.16327 5.56269,4.63557 9.58018,6.18076 4.0175,1.54519 4.32654,2.16327 10.5073,5.25365 6.18077,3.09039 7.72595,4.0175 11.43441,6.18076 3.70846,2.16327 4.63557,4.32654 5.56269,6.4898 0.92711,2.16327 4.94461,4.63558 3.39942,7.72596 -1.54519,3.09038 -4.63557,1.23615 -4.63557,2.78134 0,1.54519 0.61808,2.78135 -0.61808,5.87173 -1.23615,3.09037 -0.92712,4.32653 -5.25364,5.56268 -4.32654,1.23615 -6.79885,1.85423 -8.96211,0.92712 -2.16327,-0.92712 -2.78134,2.78134 -4.94462,1.85422 -2.16326,-0.92711 -3.09037,-3.70845 -4.63557,-2.16326 -1.54518,1.54519 1.23616,2.47231 -2.4723,3.39942 -3.70846,0.92712 -4.0175,-1.54519 -4.32653,0.61807 -0.30904,2.16327 0.92711,4.32654 -3.09038,2.16327 -4.0175,-2.16327 -2.78135,-6.4898 -5.87173,-3.39942 -3.09038,3.09038 -1.54519,6.79884 -7.10788,3.70846 -5.56269,-3.09038 -3.70846,-3.39942 -8.03499,-3.09038 -4.32653,0.30904 -4.32653,0.61807 -5.87172,-2.78135 -1.5452,-3.39941 1.54519,-2.4723 -5.25365,-2.78134 -6.79884,-0.30904 -3.39942,4.0175 -7.72595,-1.85423 -4.32655,-5.87172 -5.25366,-11.74344 -7.10789,-5.25364 -1.85423,6.4898 0,8.03498 -2.78135,9.88921 -2.78134,1.85424 -16.9971,1.23616 -16.9971,1.23616 0,0 -0.30903,7.10788 -1.54518,8.34403 -1.23616,1.23615 -4.32654,-1.23615 -7.10788,1.23615 -2.78134,2.4723 -0.92711,4.0175 -3.39942,6.18076 -2.4723,2.16327 -7.416909,2.47231 -7.416909,2.47231 0,0 3.399419,-2.78134 4.326529,-5.25365 0.92712,-2.47231 2.16327,-6.79884 2.16327,-6.79884 0,0 -4.94461,1.85423 -7.107879,2.16327 -2.16326,0.30903 -5.56269,-0.30904 -5.56269,-0.30904 l 0.92712,7.10787 c 0,0 -5.87172,0 -5.87172,-2.4723 0,-2.4723 1.85423,-9.27114 3.39942,-10.19825 1.54518,-0.92712 3.70846,-0.61808 3.70846,-0.61808 0,0 -0.61808,-3.09039 0.92711,-3.70846 1.54519,-0.61808 2.4723,0 4.944599,0 2.47231,0 13.59768,-3.39942 13.59768,-3.39942 0,0 -0.30903,-8.03499 0.92712,-11.43441 1.23615,-3.39942 7.10787,-12.97961 4.32653,-14.52479 -2.78134,-1.54519 -4.94461,-0.30904 -6.4898,1.23615 -1.54519,1.54519 -4.32653,6.18076 -10.19825,7.41691 -5.871729,1.23615 -10.507299,1.85423 -10.507299,1.85423 0,0 -1.23615,0.61808 -1.23615,3.09039 0,2.4723 2.16326,4.9446 -0.92712,8.03498 -3.09038,3.09039 -5.56268,5.87173 -8.9621,4.32654 -3.39942,-1.54519 -4.0175,-3.39942 -4.0175,-3.39942 0,0 2.4723,1.54519 6.4898,0.61808 4.0175,-0.92712 2.4723,-8.65307 2.16327,-10.19826 -0.30904,-1.54519 -3.39942,-3.09039 -5.25365,-1.54519 -1.85423,1.54519 -4.32654,5.56268 -2.78134,7.10787 1.54519,1.5452 -4.32654,-3.39942 -4.0175,-5.56268 0.30904,-2.16327 1.23615,-3.70846 1.23615,-3.70846 0,0 -4.01749,0 -6.4898,-0.30904 -2.4723,-0.30904 -4.32653,-1.54519 -4.32653,0.30904 0,1.85423 1.23615,10.19826 -1.54519,4.94461 -2.78135,-5.25365 -4.0175,-6.4898 -1.23616,-9.27114 z"
     id="path10416-1"
     sodipodi:nodetypes="cccccccccccccccccccccccccccccccccccccccccccccccccccccccccccccccccccccccccccccccccccccccccccccccccccccccccccccccccccccccccccccccccccccccccccccccccccccccccccccccccccccccccccccccccccccccccccccccc"
     style="fill:#ffffff;fill-opacity:1;fill-rule:evenodd;stroke:#999999;stroke-width:0.69799156pt;stroke-linecap:butt;stroke-linejoin:miter;stroke-opacity:1"
     inkscape:connector-curvature="0"
     inkscape:export-filename="/home/mike/src/earie/src/text3778-7.png"
     inkscape:export-xdpi="136.36182"
     inkscape:export-ydpi="136.36182" />
  <text
     xml:space="preserve"
     style="font-size:48px;font-style:normal;font-variant:normal;font-weight:bold;font-stretch:normal;line-height:125%;letter-spacing:0px;word-spacing:0px;fill:#ffffff;fill-opacity:1;stroke:#999999;stroke-opacity:1;font-family:Impact;-inkscape-font-specification:Impact Bold"
     x="109.82109"
     y="351.61392"
     id="text3778-7"
     sodipodi:linespacing="125%"
     inkscape:export-xdpi="136.36182"
     inkscape:export-ydpi="136.36182"><tspan
       sodipodi:role="line"
       id="tspan3780-4"
       x="109.82109"
       y="351.61392">Eyrie</tspan></text>
</svg>
